<svg id="Layer_1" data-name="Layer 1" xmlns="http://www.w3.org/2000/svg" viewBox="0 0 1005.3 1005.3"><defs><style>.cls-1{fill:#1d1d1b;}.cls-2{fill:#cc1517;}</style></defs><circle class="cls-1" cx="502.65" cy="502.65" r="502.65"/><path class="cls-2" d="M233.33,562.21V786.39H169.18V295h64.15V522.73L436.37,295h81.07l-222.77,246L519.55,786.39H435.66Z" transform="translate(-37.35 -37.35)"/><path class="cls-2" d="M747.27,791.33c-98.7,0-168.5-55-169.9-136.07h68.38C650,696.15,678.88,737,747.27,737c62,0,98.69-35.25,98.69-81.78,0-132.53-265.78-47.93-265.78-230.52,0-81.08,65.57-136.07,162.86-136.07,93.76,0,155.09,51.47,162.85,126.19h-70.5c-4.23-33.13-35.25-70.49-95.17-71.2-52.88-1.41-94.47,26.09-94.47,79,0,126.9,265.07,47.94,265.07,229.82C910.82,722.24,853.72,791.33,747.27,791.33Z" transform="translate(-37.35 -37.35)"/></svg>