<?xml version="1.0" encoding="UTF-8"?>
<svg id="Layer_2" data-name="Layer 2" xmlns="http://www.w3.org/2000/svg" viewBox="0 0 561.68 343.8">
  <defs>
    <style>
      .cls-1 {
        fill: #8e6547;
      }

      .cls-1, .cls-2, .cls-3, .cls-4, .cls-5, .cls-6, .cls-7, .cls-8, .cls-9, .cls-10, .cls-11, .cls-12, .cls-13, .cls-14 {
        stroke-width: 0px;
      }

      .cls-2 {
        fill: #434345;
      }

      .cls-3 {
        fill: #00504b;
      }

      .cls-4 {
        fill: #00a79d;
      }

      .cls-5 {
        fill: #00857d;
      }

      .cls-6 {
        fill: #f5f1f8;
      }

      .cls-7 {
        fill: #0d0d0d;
      }

      .cls-8 {
        fill: #e1d1c4;
      }

      .cls-9 {
        fill: #fff;
      }

      .cls-10 {
        fill: #231f20;
      }

      .cls-11 {
        fill: #f1f2f2;
      }

      .cls-12 {
        fill: #f6e3d4;
      }

      .cls-13 {
        fill: #0b0b0b;
      }

      .cls-14 {
        fill: #eea4c8;
      }
    </style>
  </defs>
  <g id="Layer_1-2" data-name="Layer 1">
    <path class="cls-11" d="M331.69,343.7l227.82-63.07c2.92-.81,2.88-4.95-.04-5.72l-327.94-85.29c-.5-.13-1.03-.13-1.53.01L2.17,252.7c-2.92.81-2.88,4.95.04,5.72l327.94,85.29c.5.13,1.03.13,1.53-.01Z"/>
    <g>
      <rect class="cls-5" x="344.94" y="176.94" width="4.65" height="52.9" transform="translate(5.61 -9.3) rotate(1.55)"/>
      <circle class="cls-10" cx="322" cy="240.47" r="5.1"/>
      <circle class="cls-10" cx="368.86" cy="224.88" r="5.1"/>
      <polygon class="cls-5" points="366.79 218.77 372.77 220.15 322.26 238.72 317.05 236.81 366.79 218.77"/>
      <circle class="cls-10" cx="319.89" cy="223" r="5.1"/>
      <circle class="cls-10" cx="374.34" cy="242.35" r="5.1"/>
      <polygon class="cls-5" points="378.38 238.18 374.09 239.72 316.9 218.64 320.43 217.28 378.38 238.18"/>
    </g>
    <rect class="cls-12" x="264.64" y="230.57" width="10.13" height="21.08"/>
    <path class="cls-3" d="M277.09,252.08c-.88-2.83-.3-5.94-1.59-8.66-.13-.27-.59-.34-.79-.1-.64.77-.61,1.69-.39,2.63.16.67.82,2.56-.39,2.68-1.13.11-1.76-1.32-2.26-2.08-.25-.37-.52-.74-.87-1.02-.18-.14-.38-.24-.56-.36-.35-.24-.38-.47-.52-.85-.63-1.71-3.02-2.04-4.59-1.89-.96.09-1.73.59-1.96,1.57-.25,1.07-.15,2.2-.39,3.28-.56,2.56-1.33,4.68-3.23,6.48-.15.15-.44.47-.68.68-.99,1.06-2.05,2.05-3.13,2.99-.99.86-2.07,1.64-3.03,2.55-.95.9-1.53,1.95-1.92,3.19-.38,1.21-.84,2.56-.49,3.83.27,1,.99,1.83,1.85,2.39,2.19,1.44,5.2,1.02,7.66.81,1.46-.13,2.92-.31,4.38-.54,1.24-.2,2.54-.38,3.65-1.03,1.1-.64,1.82-1.74,2.84-2.49,1.04-.77,2.26-1.26,3.43-1.78,2-.89,4.16-2.06,4.98-4.23,1.07-2.81-1.19-5.49-1.99-8.05Z"/>
    <rect class="cls-12" x="295.12" y="237.25" width="10.13" height="21.08"/>
    <path class="cls-10" d="M402.17,160h-20.09c.16-1.9.22-3.82.31-5.72.13-2.68.23-5.36.33-8.04.09-2.6.16-5.2.21-7.79.01-.64-.99-.64-1,0-.11,5.2-.29,10.39-.53,15.58-.09,1.99-.16,3.98-.33,5.97h-32.21c.61-1.64.94-3.37,1.14-5.12.28-2.42.35-4.86.46-7.29.13-2.68.23-5.36.33-8.04.09-2.6.16-5.2.21-7.79.01-.64-.99-.64-1,0-.11,5.2-.29,10.39-.53,15.58-.11,2.44-.19,4.9-.45,7.33-.2,1.81-.56,3.63-1.24,5.33h-33.56c4.38-4.66,9.37-8.76,14.42-12.65,1.7-1.31,3.42-2.6,5.13-3.89.51-.38.01-1.25-.5-.86-7.13,5.35-14.32,10.77-20.37,17.36-.01.01-.02.03-.03.04h-36.04c.31-.44.6-.89.93-1.32,5.26-7,12.06-12.7,18.96-18.01,1.7-1.31,3.42-2.6,5.13-3.89.51-.38.01-1.25-.5-.86-7.13,5.35-14.32,10.77-20.37,17.36-1.94,2.12-3.74,4.36-5.37,6.73h-17.06c-.64,0-.64,1,0,1h16.36c-.61.92-1.18,1.87-1.73,2.83-2.4,4.24-4.11,8.82-5.49,13.48-1.44,4.84-2.59,9.76-3.77,14.66-1.23,5.08-2.41,10.18-3.34,15.33-.92,5.09-1.62,10.22-1.88,15.39-.13,2.42-.22,4.87-.06,7.29.12,1.79.4,3.61,1.09,5.28.62,1.51,1.58,2.9,3.01,3.73,1.99,1.17,4.29.87,6.49.8,1.3-.04,2.53.11,3.78.42,1.15.29,2.29.63,3.47.79,1.79.24,3.87-.02,5.2-1.36.75-.76,1.11-1.78,1.33-2.81.25-1.2.43-2.42.58-3.64.32-2.61.46-5.23.51-7.86.11-5.27-.1-10.55.2-15.81.46-8.09,2.39-16.88,8.22-22.89,2.25-2.33,5-3.99,7.92-5.29-.29.88-.57,1.76-.83,2.64-1.44,4.84-2.59,9.76-3.77,14.66-1.23,5.08-2.41,10.18-3.34,15.33-.92,5.09-1.62,10.22-1.88,15.39-.13,2.42-.22,4.87-.06,7.29.12,1.79.4,3.61,1.09,5.28.62,1.51,1.58,2.9,3.01,3.73,1.99,1.17,4.29.87,6.49.8,1.3-.04,2.53.11,3.78.42,1.15.29,2.29.63,3.47.79,1.79.24,3.87-.02,5.2-1.36.75-.76,1.11-1.78,1.33-2.81.25-1.2.43-2.42.58-3.64.32-2.61.46-5.23.51-7.86.11-5.27-.1-10.55.2-15.81.46-8.09,2.39-16.88,8.22-22.89,3.19-3.29,7.36-5.27,11.64-6.75,4.78-1.65,9.68-2.98,14.52-4.44,5.04-1.51,10.09-3,15.13-4.54,3.78-1.16,7.64-2.5,10.76-4.99,1.56-1.24,2.86-2.8,3.74-4.59.99-2.02,1.44-4.23,1.7-6.45.02-.19.04-.38.05-.57h20.18c.64,0,.64-1,0-1ZM347.35,161c-.03.07-.06.14-.09.2-1.87,3.54-5.4,5.68-9.02,7.13-4.29,1.72-8.83,2.86-13.25,4.18-5.03,1.51-10.05,3.02-15.08,4.52-2.61.78-5.24,1.55-7.79,2.53.29-.81.58-1.61.9-2.41,1.7-4.21,3.93-8.17,6.66-11.8,1.14-1.52,2.36-2.96,3.63-4.37h34.03Z"/>
    <path class="cls-5" d="M385.55,86.11c-2.07-7.28-5-15.05-10.56-20.42-2.78-2.69-6.18-4.46-9.95-5.29-4.26-.94-8.74-.95-13.08-.9-8,.08-16.63,1.47-22.51,7.4-2.83,2.85-4.37,6.48-5.16,10.37-.9,4.39-1.2,8.93-1.68,13.38-.51,4.77-1.01,9.55-1.51,14.33-.5,4.73-.97,9.43-.31,14.17.29,2.06.72,4.1,1.16,6.14-.4-.09-.8-.17-1.21-.24-.16-.03-.22.21-.07.24.45.08.89.18,1.33.27.02.1.04.19.06.29.03.16.28.09.24-.07-.01-.06-.02-.11-.04-.17,4.01.93,7.72,2.59,11.3,4.65,3.87,2.22,7.63,4.61,11.58,6.69,7.87,4.14,16.15,7.52,24.68,10.06,2.15.64,4.31,1.27,6.5,1.73,1.09.23,2.19.41,3.31.47.89.05,1.94.13,2.8-.2.73-.28,1.07-.92,1.3-1.63.33-1.05.57-2.13.84-3.19.53-2.11,1.02-4.23,1.46-6.36,1.78-8.57,2.84-17.31,2.86-26.06.02-8.66-1-17.34-3.36-25.68Z"/>
    <rect class="cls-3" x="244.58" y="106.94" width="9.19" height="107.85"/>
    <polygon class="cls-4" points="93.37 146.38 250.62 102.84 473.72 160.86 316.47 204.4 93.37 146.38"/>
    <polygon class="cls-3" points="473.72 160.86 473.72 170.83 316.47 214.36 316.47 204.4 473.72 160.86"/>
    <polygon class="cls-5" points="93.37 146.38 93.37 156.34 316.47 214.36 316.47 204.4 93.37 146.38"/>
    <rect class="cls-5" x="93.37" y="150.48" width="9.19" height="107.85"/>
    <rect class="cls-3" x="464.54" y="168.01" width="9.19" height="107.85"/>
    <path class="cls-7" d="M379.79,105.51c-.09-1.4-.27-2.81-.62-4.18-.16-.62-.95-8.29-1.18-8.9,0,0,0,0,0,0-2.22-11.95-14.49-21.47-30.8-21.47-18.05,0-30.65,12.21-30.65,25.92l6.42-5.23s-6.21,2.21-6.22,2.25c-.88,2.57-2.32,11.48-3.23,14.04-.86,2.41-1.97,4.57-3.69,6.47-1.65,1.83-3.52,3.48-5.38,5.09-1.83,1.58-3.72,3.1-5.67,4.53-3.91,2.88-8.03,5.47-12.32,7.74-2.18,1.15-4.4,2.22-6.66,3.2-.76.33-2.03.65-2.15,1.64-.11.93,1.11,1.78,1.71,2.33,1.82,1.65,3.87,3.03,5.94,4.34,1.93,1.22,3.81,2.53,6.21,2.2,2.35-.32,4.37-1.8,6.19-3.23,2.13-1.68,4.25-3.37,6.38-5.06,4.26-3.38,8.55-6.72,12.7-10.24,3.72-3.16,7.47-6.43,10.47-10.3,1.37-1.77,2.56-3.66,3.47-5.71.45.16-3.14,13.54-2.69,13.69,5.02,1.61,28.34,7.34,28.34,7.34,5.13,0,7.91-13.86,6.38-20.2-.11.07-.19.17-.22.33,0,.05-.02.09-.02.14-.02.04-.04.08-.06.12-.09.16-.09.3-.03.43-.42,2.45-.82,4.9-1.28,7.35-.46,2.51-1.22,4.82-2.61,6.97-1.34,2.07-2.92,3.99-4.51,5.88-1.56,1.85-3.19,3.65-4.88,5.38-3.4,3.47-7.06,6.68-10.93,9.6-1.97,1.48-3.99,2.89-6.07,4.22-.69.44-1.9.96-1.86,1.96.04.94,1.38,1.58,2.06,2.02,2.06,1.34,4.3,2.37,6.55,3.34,2.1.9,4.17,1.9,6.48,1.19,2.27-.69,4.03-2.47,5.6-4.17,1.84-1.99,3.66-4,5.5-6,3.67-4.01,7.37-7.99,10.91-12.12,3.18-3.71,6.35-7.53,8.7-11.83,1.11-2.04,2.03-4.19,2.6-6.44.3-1.18.5-2.39.63-3.6.07-.65.12-1.3.15-1.95,0-.2.03-.42.04-.64.25-2.8.48-5.61.31-8.42Z"/>
    <g>
      <rect class="cls-12" x="340.17" y="65.01" width="14.7" height="7.62"/>
      <ellipse class="cls-12" cx="347.51" cy="72.63" rx="7.37" ry="3.89"/>
      <g>
        <g>
          <path class="cls-12" d="M372.58,33.99c0-7.57-2.88-15.95-5.79-21.55-4.12-7.93-13-1.73-21.94-1.9h3.95c-.08,0-.75-.2-.82-.2-.08,0,11.45,2.81,0-1.5l-1.87-.07c-8.49.16-11.97-3.79-16.15,3.47-3.33,5.79-6.59,13.64-6.59,21.75,0,18.28,9.11,33.12,24.38,33.41h0c.08.01.15,0,.23,0,.08,0,.15,0,.23,0h0c15.27-.31,24.38-15.15,24.38-33.42Z"/>
          <path class="cls-1" d="M331.42,17.9l-1.58,1.68c-.18-1.48-.38-2.96-.62-4.44-1.32,1.01-1.63,2.18-1.84,3.7s-.83,2.99-1.23,4.53c-.55,2.1-.96,4.24-1.32,6.4-.17,1.04-.32,2.08-.47,3.13-.08.58-.62,2.38-.39,2.89-.97-2.12-.92-4.61-.73-6.98.53-6.48,2.01-12.95,4.99-18.6,1.09-2.08,2.43-4.09,4.3-5.35,2.19-1.49,4.86-1.8,7.42-2.08,2.07-.23,5.83.02,6.67-2.77.21.39.42.79.62,1.19.18-.26.37-.51.55-.77.05-.07.1-.14.18-.18.17-.08.36.07.45.25s.12.39.24.55c.09-.26.17-.52.26-.77.52.36,1.02.78,1.48,1.24,1.39,1.4,3.81,1.09,5.62,1.26,2.57.28,5.23.59,7.42,2.08,1.87,1.27,3.2,3.27,4.3,5.35,2.16,4.1,3.77,8.77,4.21,13.39.19,1.94.9,3.67,1.23,5.58.41,2.38.25,4.82.07,7.22-.17,2.26-.34,4.52-.51,6.78-.09,1.18-.18,2.37-.54,3.5-.34,1.08-.92,2.08-1.5,3.05-1,1.7-2.02,3.38-3.06,5.06.15-3.2.3-6.39.45-9.59.06-1.32.14-2.7.82-3.83.33-.55.8-1.02,1.04-1.62.42-1.06.01-2.27-.62-3.22s-1.49-1.72-2.11-2.67c-1.13-1.72-1.43-3.84-1.7-5.88-.37-2.76-.73-5.52-1.1-8.28-.48.52-1.04.96-1.65,1.31.04-.89-.73-1.74-1.62-1.78-1.19-.05-2.05,1.08-2.69,2.1l-.49-2.08-4.04,3.43-1.36-2.79-2.54,1.87c-.11-.98-.43-1.93-.92-2.78-.75.91-1.6,1.74-2.53,2.47-.31-.79-.63-1.58-.94-2.37-.5.39-.99.78-1.49,1.18-.14.11-.3.23-.48.25-.92.08-.5-1.97-1.42-2.09-1.04.76-1.83,1.88-2.19,3.12l-.18-1.92-1.36,2.71c-.67-1.19-1.13-2.5-1.35-3.85l-1.66,1.14-.18-1.46c-1.22.14-2.4.65-3.34,1.45-.1-.59-.27-1.16-.52-1.71Z"/>
          <circle class="cls-13" cx="352.06" cy="31.63" r="1.94"/>
          <circle class="cls-13" cx="331.41" cy="31.63" r="1.94"/>
          <g>
            <path class="cls-13" d="M332.46,51.64c0,4.85,2.99,8.78,6.69,8.78s6.69-3.93,6.69-8.78h-13.38Z"/>
            <path class="cls-14" d="M337.32,56.57c-1.04,0-1.95.72-2.47,1.8,1.16,1.28,2.66,2.06,4.3,2.06s3.08-.74,4.23-1.98c-.52-1.06-1.42-1.77-2.46-1.77-.66,0-1.26.29-1.75.77-.5-.55-1.15-.87-1.85-.87Z"/>
          </g>
          <path class="cls-6" d="M345.04,51.64v1.66c0,.28-.11.51-.23.51h-11.31c-.13,0-.23-.23-.23-.51v-1.66h11.78Z"/>
          <path class="cls-8" d="M335.92,42.3h0s0,.02,0,.03c0,0,0,.02,0,.03h0c.03,1.79,1.77,2.85,3.91,2.85s3.88-1.07,3.91-2.85h0s0-.02,0-.03c0,0,0-.02,0-.03h0"/>
          <path class="cls-8" d="M372.14,39.06c0-2.73-1.36-4.95-3.65-5h0s-.02,0-.03,0c-.01,0-.02,0-.03,0h0c-2.28.05-3.65,2.26-3.65,5s1.36,4.95,3.65,5h0s.02,0,.03,0c.01,0,.02,0,.03,0h0c2.28-.05,3.65-2.26,3.65-5Z"/>
        </g>
        <path class="cls-1" d="M328.44,28.32c1.81-1.03,4.1-1.06,5.94-.09.57.3,1.07-.56.5-.86-2.16-1.15-4.82-1.12-6.95.09-.56.32-.06,1.18.5.86h0Z"/>
        <path class="cls-1" d="M349.09,27.89c1.81-1.03,4.1-1.06,5.94-.09.57.3,1.07-.56.5-.86-2.16-1.15-4.82-1.12-6.95.09-.56.32-.06,1.18.5.86h0Z"/>
      </g>
      <g>
        <polygon class="cls-9" points="353.84 96.51 353.21 95.07 353.79 93.9 353.28 93.9 352.73 95.11 353.29 96.51 353.84 96.51"/>
        <path class="cls-9" d="M357.2,94.71h-.32c.02.15.02.31.02.47,0,2.07-1.3,3.75-2.91,3.75-.33,0-.64-.07-.93-.2v.43c.3.11.61.18.93.18,1.78,0,3.23-1.86,3.23-4.16,0-.16,0-.32-.02-.47Z"/>
        <path class="cls-9" d="M352.72,98.56v-4.66h-.35v4.4c-.77-.67-1.28-1.82-1.28-3.11,0-2.07,1.3-3.75,2.91-3.75,1.23,0,2.29.99,2.71,2.39h-1.75c-.12,0-.23.04-.33.09-.12.06-.21.15-.28.26-.07.11-.1.25-.1.41,0,.2.05.36.15.49.1.13.27.24.5.33.14.06.24.11.29.16.05.05.08.13.08.22,0,.1-.03.18-.09.24-.06.06-.14.08-.24.08-.11,0-.21-.02-.3-.07-.09-.05-.17-.11-.25-.19l-.24.35c.08.11.19.2.32.27.13.07.29.11.48.11.17,0,.32-.04.44-.11.12-.07.22-.17.28-.29.07-.12.1-.27.1-.43s-.02-.29-.07-.4c-.05-.11-.12-.19-.21-.26-.09-.07-.2-.13-.33-.18-.11-.04-.19-.08-.25-.12-.06-.03-.1-.07-.13-.11s-.04-.08-.04-.14c0-.08.03-.15.08-.19.04-.03.1-.05.17-.06h0s.66,0,.66,0h1.48c-.32-1.86-1.61-3.24-3.15-3.24-1.78,0-3.23,1.86-3.23,4.16,0,1.71.8,3.18,1.95,3.82v-.45s0,0,0,0Z"/>
      </g>
    </g>
    <path class="cls-10" d="M330.74,120.99c-.11-6.22.43-11.4.16-17.61-.11-2.59,1.43-6.28,1.35-8.87-.04-1.28-.07-2.57-.1-3.85-.02-1.14-.26-2.53-.05-3.64-1.15,6.2-1.93,12.48-2.33,18.77-.2,3.15-.3,6.3-.31,9.46,0,2.94-.86,5.89-1.59,8.73-.13.5-.06.58-.1.58.04,0,1.43.45,1.43.45.15-.75,1.55-3.16,1.53-4.02Z"/>
    <path class="cls-10" d="M361.26,121.06c-.11-6.22,1.3-4.27,1.03-10.48-.11-2.59,1.06-5.28.98-7.87-.04-1.28-.07-2.57-.1-3.85-.02-1.14-.26-2.53-.05-3.64-1.15,6.2-1.93,12.48-2.33,18.77-.2,3.15-3.56,6.96-3.57,10.11,0,2.94-2.85,4.35-3.58,7.19-.13.5,1.63.02,1.5.52,1.96-.6,4.69-5.61,4.69-5.61.49-1.9,1.43-4.28,1.42-5.13Z"/>
    <polygon class="cls-2" points="152.32 122.77 152.32 49.81 236.45 75.25 236.45 148.21 152.32 122.77"/>
    <polygon class="cls-2" points="343.38 166.13 343.38 93.16 252.3 83.89 252.3 156.85 343.38 166.13"/>
    <polyline class="cls-2" points="296.06 159.68 296.06 174.64 302.51 174.64 302.51 157.61"/>
    <ellipse class="cls-2" cx="299.29" cy="175.73" rx="24.26" ry="3.61"/>
    <polyline class="cls-2" points="189.74 130.26 189.74 145.22 196.19 145.22 196.19 128.19"/>
    <ellipse class="cls-2" cx="192.96" cy="146.38" rx="3.61" ry="24.26" transform="translate(9.74 304.77) rotate(-78.03)"/>
    <path class="cls-3" d="M307.57,258.76c-.88-2.83-.3-5.94-1.59-8.66-.13-.27-.59-.34-.79-.1-.64.77-.61,1.69-.39,2.63.16.67.82,2.56-.39,2.68-1.13.11-1.76-1.32-2.26-2.08-.25-.37-.52-.74-.87-1.02-.18-.14-.38-.24-.56-.36-.35-.24-.38-.47-.52-.85-.63-1.71-3.02-2.04-4.59-1.89-.96.09-1.73.59-1.96,1.57-.25,1.07-.15,2.2-.39,3.28-.56,2.56-1.62,4.97-3.52,6.77-.15.15-.07.09-.39.39-.99,1.06-2.05,2.05-3.13,2.99-.99.86-2.07,1.64-3.03,2.55-.95.9-1.53,1.95-1.92,3.19-.38,1.21-.84,2.56-.49,3.83.27,1,.99,1.83,1.85,2.39,2.19,1.44,5.2,1.02,7.66.81,1.46-.13,2.92-.31,4.38-.54,1.24-.2,2.54-.38,3.65-1.03,1.1-.64,1.82-1.74,2.84-2.49,1.04-.77,2.26-1.26,3.43-1.78,2-.89,4.16-2.06,4.98-4.23,1.07-2.81-1.19-5.49-1.99-8.05Z"/>
    <rect class="cls-5" x="307.29" y="204.4" width="9.19" height="107.85"/>
  </g>
</svg>