<?xml version="1.0" encoding="UTF-8"?>
<svg id="Layer_2" data-name="Layer 2" xmlns="http://www.w3.org/2000/svg" viewBox="0 0 257.43 257.43">
  <defs>
    <style>
      .cls-1 {
        fill: #fff;
        stroke-width: 0px;
      }
    </style>
  </defs>
  <g id="Layer_1-2" data-name="Layer 1">
    <g>
      <polygon class="cls-1" points="122.44 169.52 97.41 125.06 120.22 88.86 100.2 88.86 78.15 126.46 100.32 169.52 122.44 169.52"/>
      <path class="cls-1" d="M256.6,114.1h-12.72c.6,4.79.91,9.67.91,14.62,0,64.11-51.97,116.07-116.07,116.07-13.02,0-25.54-2.14-37.22-6.1v13.26c11.78,3.55,24.28,5.47,37.22,5.47,71.09,0,128.71-57.63,128.71-128.71,0-4.94-.29-9.82-.83-14.62Z"/>
      <path class="cls-1" d="M77.57,232.93V88.86h-13.84v136.04c-30.82-20.87-51.08-56.16-51.08-96.19,0-64.11,51.97-116.07,116.07-116.07,49.18,0,91.21,30.59,108.12,73.77h-69.73v.05c-4.72.21-9.08,1.11-13.09,2.72-4.62,1.84-8.29,4.51-11.03,8-2.74,3.49-4.1,7.7-4.1,12.63,0,6.13,1.99,11.14,5.97,15.04,3.98,3.9,10.68,7.29,20.11,10.16,5.62,1.71,9.48,3.4,11.55,5.06,2.07,1.67,3.11,3.98,3.11,6.93,0,3.14-1.24,5.58-3.72,7.3-2.48,1.73-5.72,2.59-9.72,2.59-4.31,0-8.26-.71-11.87-2.12-3.61-1.42-6.91-3.42-9.89-6.02l-9.66,10.71c3.38,3.3,7.63,6.06,12.77,8.29,5.14,2.23,11.51,3.35,19.12,3.35,6.87,0,12.74-1.09,17.63-3.26,4.89-2.17,8.64-5.18,11.26-9.02,2.62-3.84,3.93-8.26,3.93-13.27s-.96-9.08-2.88-12.34c-1.92-3.26-4.69-5.96-8.32-8.12-3.63-2.15-7.98-4.01-13.07-5.56-4.27-1.36-7.61-2.55-10.01-3.58-2.41-1.03-4.09-2.13-5.06-3.29s-1.45-2.6-1.45-4.31c0-2.6,1.11-4.57,3.32-5.91,1.78-1.07,4.03-1.7,6.73-1.91v-.28h85.54C241.31,42.86,190.02,0,128.71,0,57.63,0,0,57.63,0,128.71c0,52.94,31.97,98.41,77.65,118.18l-.09-13.78v-.18Z"/>
    </g>
  </g>
</svg>