<?xml version="1.0" encoding="UTF-8"?>
<svg id="Layer_2" data-name="Layer 2" xmlns="http://www.w3.org/2000/svg" viewBox="0 0 190.39 208.32">
  <defs>
    <style>
      .cls-1 {
        fill: #8e6547;
      }

      .cls-1, .cls-2, .cls-3, .cls-4, .cls-5, .cls-6, .cls-7, .cls-8, .cls-9, .cls-10, .cls-11 {
        stroke-width: 0px;
      }

      .cls-2 {
        fill: #f5f1f8;
      }

      .cls-3 {
        fill: #0d0d0d;
      }

      .cls-4 {
        fill: #e1d1c4;
      }

      .cls-5 {
        fill: #fff;
      }

      .cls-6 {
        fill: #333132;
      }

      .cls-7 {
        fill: #231f20;
      }

      .cls-8 {
        fill: #f6e3d4;
      }

      .cls-9 {
        fill: #0b0b0b;
      }

      .cls-10 {
        fill: #eea4c8;
      }

      .cls-11 {
        fill: #9877b5;
      }
    </style>
  </defs>
  <g id="Layer_1-2" data-name="Layer 1">
    <g>
      <g>
        <path class="cls-11" d="M190.39,113.12c0-52.58-42.62-95.2-95.2-95.2S0,60.55,0,113.12c0,30.48,14.33,57.62,36.62,75.04l1.1-10.99c0-25.08,23.05-47.41,56.05-47.41s56.98,21.34,56.98,46.41l.98,13.53c23.45-17.34,38.66-45.19,38.66-76.59Z"/>
        <path class="cls-3" d="M93.76,129.77c-33,0-56.05,22.33-56.05,47.41l-1.1,10.99c7.08,5.54,14.97,10.09,23.46,13.46,0-1.09,0-2.18.03-3.27.11-6.22.42-12.43.69-18.64.11-2.59.22-5.18.3-7.77.04-1.28.07-2.57.1-3.85.02-1.14.26-2.53.05-3.64,1.15,6.2,1.93,12.48,2.33,18.77.2,3.15.3,6.3.31,9.46,0,2.94.86,5.89,1.59,8.73.2.79.42,1.58.63,2.37,9.17,2.94,18.95,4.54,29.1,4.54s19.03-1.45,27.83-4.14c.13-.49.27-.99.4-1.48.73-2.84,1.58-5.79,1.59-8.73,0-3.15.11-6.31.31-9.46.4-6.3,1.17-12.57,2.33-18.77-.21,1.12.03,2.5.05,3.64.03,1.28.06,2.57.1,3.85.08,2.59.19,5.18.3,7.77.27,6.21.58,12.42.69,18.64.01.85.01,1.71.02,2.56,8.25-3.11,15.95-7.34,22.92-12.49l-.98-13.53c0-25.08-23.98-46.41-56.98-46.41Z"/>
        <g>
          <path class="cls-7" d="M65.47,201.41c-.73-2.84-1.58-5.79-1.59-8.73,0-3.15-.11-6.31-.31-9.46-.4-6.3-1.17-12.57-2.33-18.77.21,1.12-.03,2.5-.05,3.64-.03,1.28-.06,2.57-.1,3.85-.08,2.59-.19,5.18-.3,7.77-.27,6.21-.58,12.42-.69,18.64-.02,1.09-.02,2.18-.03,3.27,1.98.78,3.99,1.5,6.02,2.16-.21-.79-.43-1.58-.63-2.37Z"/>
          <path class="cls-6" d="M65.59,201.38c-.61-2.36-1.28-4.72-1.51-7.15s-.1-4.86-.2-7.28c-.19-4.89-.61-9.77-1.26-14.61-.35-2.65-.78-5.29-1.26-7.92-.03-.16-.27-.09-.24.07.18,1.13,0,2.27-.05,3.41-.05,1.19-.06,2.38-.09,3.58-.07,2.39-.17,4.78-.27,7.16-.21,4.92-.45,9.84-.61,14.76-.09,2.75-.14,5.49-.15,8.24,0,.06.04.1.09.12,1.98.79,3.99,1.5,6.02,2.16.09.03.18-.06.15-.15-.21-.79-.43-1.58-.63-2.37-.04-.16-.28-.09-.24.07.2.79.42,1.58.63,2.37l.15-.15c-1.36-.44-2.7-.9-4.04-1.39-.3-.11-.59-.22-.89-.33-.22-.08-.73-.18-.88-.34-.22-.23-.13-.72-.12-1.02,0-.39,0-.78,0-1.17.03-2.88.12-5.76.23-8.63.22-5.79.52-11.58.73-17.37.06-1.61.1-3.22.14-4.83.03-1.38.27-2.79.05-4.16l-.24.07c.89,4.82,1.56,9.69,2,14.57.22,2.46.38,4.93.49,7.4s.02,4.88.18,7.3c.18,2.62.9,5.16,1.55,7.69.04.16.28.09.24-.07Z"/>
        </g>
        <g>
          <path class="cls-7" d="M128.79,199.64c-.11-6.22-.42-12.43-.69-18.64-.11-2.59-.22-5.18-.3-7.77-.04-1.28-.07-2.57-.1-3.85-.02-1.14-.26-2.53-.05-3.64-1.15,6.2-1.93,12.48-2.33,18.77-.2,3.15-.3,6.3-.31,9.46,0,2.94-.86,5.89-1.59,8.73-.13.5-.26.99-.4,1.48,1.96-.6,3.88-1.26,5.78-1.97,0-.85,0-1.71-.02-2.56Z"/>
          <path class="cls-6" d="M128.92,199.64c-.15-8.89-.72-17.77-1-26.66-.04-1.24-.06-2.48-.1-3.71-.04-1.17-.24-2.34-.05-3.51.03-.16-.21-.23-.24-.07-.91,4.93-1.59,9.89-2.03,14.88-.22,2.55-.39,5.1-.49,7.65s.04,5.12-.24,7.63c-.31,2.81-1.14,5.56-1.87,8.28-.02.09.06.18.15.15,1.95-.6,3.87-1.26,5.78-1.97.05-.02.09-.06.09-.12,0-.85,0-1.71-.02-2.56,0-.16-.25-.16-.25,0,.01.66.01,1.32.02,1.98,0,.51-.15.56-.59.72-.34.13-.69.25-1.03.37-1.34.48-2.7.93-4.06,1.34l.15.15c.63-2.35,1.31-4.71,1.71-7.12s.28-4.91.35-7.37c.15-5.1.55-10.19,1.2-15.26.37-2.92.83-5.82,1.36-8.71l-.24-.07c-.15.94-.06,1.89,0,2.84.07,1.04.07,2.08.1,3.13.06,2.22.14,4.45.23,6.67.19,4.54.41,9.07.58,13.61.1,2.57.17,5.14.22,7.71,0,.16.25.16.25,0Z"/>
        </g>
      </g>
      <rect class="cls-8" x="80.91" y="118.88" width="26.87" height="13.94"/>
      <ellipse class="cls-8" cx="94.34" cy="132.82" rx="13.48" ry="7.11"/>
      <g>
        <g>
          <path class="cls-8" d="M140.19,62.16c0-13.84-5.26-29.17-10.59-39.41-7.54-14.5-23.77-3.16-40.13-3.47h7.23c-.14,0-1.36-.36-1.5-.36-.14,0,20.95,5.14,0-2.75l-3.42-.12c-15.53.3-21.9-6.92-29.53,6.34-6.09,10.58-12.05,24.94-12.05,39.77,0,33.42,16.66,60.56,44.58,61.09v.03c.14,0,.28-.01.42-.01.14,0,.28.01.42.01v-.03c27.92-.54,44.58-27.67,44.58-61.09Z"/>
          <path class="cls-8" d="M56.18,62.28c0-5-2.49-9.05-6.67-9.13h0s-.04,0-.06,0c-.02,0-.04,0-.06,0h0c-4.18.08-6.67,4.14-6.67,9.14s2.49,9.05,6.67,9.13h0s.04,0,.06,0c.02,0,.04,0,.06,0h0c4.18-.08,6.67-4.14,6.67-9.14Z"/>
          <path class="cls-4" d="M87.2,77.35h0s0,.03,0,.05c0,.02,0,.03,0,.05h0c.06,3.27,3.24,5.22,7.15,5.22s7.09-1.95,7.15-5.22h0s0-.03,0-.05c0-.02,0-.03,0-.05h0"/>
          <path class="cls-8" d="M146.92,62.28c0-5-2.49-9.05-6.67-9.13h0s-.04,0-.06,0c-.02,0-.04,0-.06,0h0c-4.18.08-6.67,4.14-6.67,9.14s2.49,9.05,6.67,9.13h0s.04,0,.06,0c.02,0,.04,0,.06,0h0c4.18-.08,6.67-4.14,6.67-9.14Z"/>
          <path class="cls-1" d="M64.94,29.52c-.6.66-1.06,1.47-1.34,2.34.06-1.76.13-3.68-.22-5.39-2.95.77-3.72,2.73-4.53,5.47-1.07,3.64-2.6,7.09-3.57,10.79s-1.76,7.76-2.41,11.7c-.31,1.9-.59,3.81-.86,5.72-.15,1.06-1.14,4.36-.72,5.28-1.78-3.88-1.68-8.44-1.33-12.76.97-11.86,3.68-23.69,9.12-34.01,2-3.8,4.45-7.47,7.86-9.79,4-2.72,8.88-3.29,13.57-3.8,3.79-.41,10.66.04,12.19-5.06.38.72.76,1.45,1.13,2.18.33-.47.67-.94,1-1.4.09-.13.19-.26.32-.32.31-.15.66.13.83.46s.23.71.43,1c.16-.47.32-.94.48-1.42.96.66,1.86,1.42,2.7,2.26,2.55,2.56,6.96,1.99,10.27,2.3,4.69.51,9.57,1.09,13.57,3.8,3.41,2.32,5.86,5.99,7.86,9.79,5.43,10.33,8.15,22.16,9.12,34.01.35,4.32.45,8.88-1.33,12.76-1.16-8.71-2.35-17.5-4.89-25.89-.99-3.25-2.2-6.41-3.3-9.61-.28-.83-5.43-8.69-5.83-7.8-.43.94-.85,1.89-1.28,2.83-.46-1.22-1.07-2.37-1.81-3.41-.47.66-.95,1.33-1.42,1.99-.34-1.04-.78-2.03-1.33-2.96-.72,1.47-1.43,2.95-2.15,4.42-.64-1.03-1.27-2.07-1.91-3.1-2.05,1.27-3.96,2.81-5.67,4.58-.62-1.31-1.49-2.48-2.54-3.41-1.06,1.87-2.11,3.73-3.17,5.6-.43-.88-.85-1.76-1.28-2.64-1.35,1.94-2.71,3.88-4.06,5.82-.6-1-1.19-1.99-1.79-2.99,0,1.83-.35,3.67-1.04,5.34-.6-1.39-1.19-2.77-1.79-4.16-.51,1.37-1.17,2.68-1.95,3.88-1.33-3.63-2.83-7.18-4.49-10.64-.51,1-1.02,2-1.52,3,.15-2.1-.11-4.23-.76-6.22-1.77,2.7-3.26,5.61-4.42,8.67-.5-.82-.99-1.64-1.49-2.47-1.34,1.17-2.43,2.68-3.16,4.38-.42-1.13-.83-2.26-1.25-3.39-1.53,1.18-2.59,3.05-2.87,5.07-.44-.84-1.04-1.58-1.74-2.17-.71,1.37-1.71,2.55-2.91,3.42-.84-1.35-1.53-2.8-2.06-4.33-.09.09-.18.18-.26.27Z"/>
          <circle class="cls-9" cx="117.66" cy="57.85" r="3.54"/>
          <circle class="cls-9" cx="73.08" cy="57.85" r="3.54"/>
          <g>
            <path class="cls-9" d="M78.38,94.4c0,8.87,7.19,16.06,16.06,16.06s16.06-7.19,16.06-16.06h-32.13Z"/>
            <path class="cls-10" d="M90.05,103.41c-2.5,0-4.69,1.31-5.93,3.29,2.79,2.35,6.39,3.77,10.33,3.77s7.39-1.36,10.15-3.62c-1.25-1.95-3.42-3.24-5.9-3.24-1.57,0-3.02.53-4.19,1.4-1.21-1-2.76-1.6-4.45-1.6Z"/>
          </g>
          <path class="cls-2" d="M108.59,94.39v3.04c0,.51-.25.93-.56.93h-27.17c-.31,0-.56-.42-.56-.93v-3.04h28.3Z"/>
          <g>
            <circle class="cls-4" cx="90.33" cy="79.93" r="1.45"/>
            <circle class="cls-4" cx="98.36" cy="79.93" r="1.45"/>
          </g>
        </g>
        <path class="cls-1" d="M67.52,51.43c3.45-1.95,7.78-2.02,11.28-.16.57.3,1.07-.56.5-.86-3.82-2.03-8.52-1.97-12.29.16-.56.32-.06,1.18.5.86h0Z"/>
        <path class="cls-1" d="M112.02,51.43c3.45-1.95,7.78-2.02,11.28-.16.57.3,1.07-.56.5-.86-3.82-2.03-8.52-1.97-12.29.16-.56.32-.06,1.18.5.86h0Z"/>
      </g>
      <g>
        <polygon class="cls-5" points="115.33 173.04 113.85 170.41 115.2 168.27 114.02 168.27 112.71 170.49 114.02 173.04 115.33 173.04"/>
        <path class="cls-5" d="M123.27,169.76h-.75c.04.28.05.57.05.86,0,3.79-3.07,6.87-6.87,6.87-.77,0-1.51-.13-2.2-.36v.78c.7.21,1.44.32,2.2.32,4.2,0,7.61-3.41,7.61-7.61,0-.29-.02-.58-.05-.86Z"/>
        <path class="cls-5" d="M112.68,176.79v-8.52h-.82v8.05c-1.82-1.23-3.02-3.32-3.02-5.69,0-3.79,3.07-6.87,6.87-6.87,2.91,0,5.39,1.81,6.39,4.36h-4.12c-.28.02-.54.07-.77.16-.27.11-.49.27-.65.47-.16.21-.24.46-.24.75,0,.36.12.66.35.89.24.23.63.43,1.19.6.33.1.56.2.68.3.12.1.18.24.18.41,0,.19-.07.33-.22.43-.15.1-.34.15-.57.15-.25,0-.49-.04-.7-.13-.21-.08-.41-.2-.59-.36l-.57.63c.2.2.45.36.76.49.3.13.68.2,1.13.2.41,0,.75-.06,1.04-.19.29-.13.51-.31.67-.53.15-.23.23-.49.23-.78s-.06-.54-.17-.73c-.11-.19-.28-.35-.49-.48-.21-.13-.47-.24-.77-.33-.25-.08-.45-.15-.59-.21-.14-.06-.24-.13-.3-.19s-.09-.15-.09-.25c0-.15.07-.27.2-.35.1-.06.24-.1.4-.11v-.02h5.06c-.77-3.39-3.8-5.93-7.43-5.93-4.2,0-7.61,3.41-7.61,7.61,0,3.13,1.89,5.82,4.59,6.99v-.81s0-.01,0-.01Z"/>
      </g>
    </g>
  </g>
</svg>